<?xml version="1.0" encoding="utf-8"?>
<!-- Generator: Adobe Illustrator 16.0.0, SVG Export Plug-In . SVG Version: 6.00 Build 0)  -->
<!DOCTYPE svg PUBLIC "-//W3C//DTD SVG 1.1//EN" "http://www.w3.org/Graphics/SVG/1.1/DTD/svg11.dtd">
<svg version="1.1" id="Layer_1" xmlns="http://www.w3.org/2000/svg" xmlns:xlink="http://www.w3.org/1999/xlink" x="0px" y="0px"
	 width="100px" height="100px" viewBox="0 0 100 100" enable-background="new 0 0 100 100" xml:space="preserve">
<g>
	<g>
		<polygon points="93.882,76.861 92.031,77.288 92.57,82.698 93.922,82.07 		"/>
		<path d="M91.785,76.538l0.246-0.057l-0.213-2.13l2.048-0.204l0.017,1.905l0.479-0.109l2.574-5.347c0,0,1.98-7.329,0.795-9.309
			c-1.189-1.982-6.142-1.388-6.142-1.388c-2.177-9.109-5.941-2.377-5.941-2.377L91.785,76.538z"/>
		<path d="M12.901,34.937c1.554,4.909,6.367,7.764,10.751,6.375l41.909-13.271c4.385-1.387,6.677-6.494,5.124-11.402
			c-1.555-4.909-6.368-7.763-10.753-6.375L18.023,23.533C13.638,24.921,11.346,30.028,12.901,34.937z M54.377,19.605
			c0-3.768,3.055-6.822,6.823-6.822c3.767,0,6.822,3.054,6.822,6.822s-3.054,6.823-6.822,6.823S54.377,23.373,54.377,19.605z"/>
		<path d="M66.317,29.364l-2.674,0.845l16.425,21.921c2.068,2.761,5.479,3.703,7.613,2.102c2.136-1.601,2.19-5.137,0.122-7.897
			L71.345,24.368C70.488,26.72,68.72,28.603,66.317,29.364z"/>
		<path d="M5.562,72.589L10.2,83.548l-3.804,0.007c0.338,3.215,0.638,5.603,0.638,6.783l47.251,0.064c0,0,2.277-2.906,1.595-6.853
			l-4.864,0.009l-4.303-10.166c-9.757-5.739-14.847-5.047-15.573-18.431c-0.221-4.104-0.634-9.371-1.413-14.334l-6.972,2.413
			c0,0-7.182,1.897-10.754-7.252C5.947,47.455,5.12,61.541,5.562,72.589z M39.154,83.559l-5.697-13.457l6.633-0.013l5.699,13.459
			L39.154,83.559z M27.293,83.559l-5.697-13.457l6.632-0.013l5.697,13.459L27.293,83.559z M9.732,70.102l6.633-0.013l5.698,13.459
			l-6.633,0.011L9.732,70.102z"/>
		<rect x="4.376" y="91.747" width="51.783" height="1.953"/>
	</g>
	<g>
		<g>
			<polygon fill="#FFFFFF" points="89.882,72.861 88.031,73.288 88.57,78.698 89.922,78.07 			"/>
			<path fill="#FFFFFF" d="M87.785,72.538l0.246-0.057l-0.213-2.13l2.048-0.204l0.017,1.905l0.479-0.109l2.574-5.347
				c0,0,1.98-7.329,0.795-9.309c-1.189-1.982-6.142-1.388-6.142-1.388c-2.177-9.109-5.941-2.377-5.941-2.377L87.785,72.538z"/>
			<path fill="#FFFFFF" d="M8.901,30.937c1.554,4.909,6.367,7.764,10.751,6.375l41.909-13.271c4.385-1.387,6.677-6.494,5.124-11.402
				c-1.555-4.909-6.368-7.763-10.753-6.375L14.023,19.533C9.638,20.921,7.346,26.028,8.901,30.937z M50.376,15.605
				c0-3.768,3.055-6.822,6.824-6.822c3.767,0,6.822,3.054,6.822,6.822s-3.054,6.823-6.822,6.823S50.376,19.373,50.376,15.605z"/>
			<path fill="#FFFFFF" d="M62.317,25.364l-2.674,0.845l16.425,21.922c2.068,2.76,5.479,3.703,7.613,2.102
				c2.136-1.601,2.19-5.138,0.122-7.898L67.345,20.368C66.488,22.72,64.72,24.603,62.317,25.364z"/>
			<path fill="#FFFFFF" d="M1.562,68.589L6.2,79.548l-3.804,0.007c0.338,3.215,0.638,5.603,0.638,6.783l47.25,0.064
				c0,0,2.278-2.906,1.595-6.853l-4.864,0.009l-4.304-10.166c-9.757-5.739-14.847-5.047-15.573-18.431
				c-0.221-4.104-0.634-9.371-1.413-14.334l-6.972,2.413c0,0-7.182,1.897-10.754-7.252C1.947,43.455,1.12,57.541,1.562,68.589z
				 M35.154,79.559l-5.697-13.457l6.633-0.013l5.699,13.459L35.154,79.559z M23.293,79.559l-5.697-13.457l6.632-0.013l5.697,13.459
				L23.293,79.559z M5.732,66.102l6.633-0.013l5.698,13.459l-6.633,0.011L5.732,66.102z"/>
			<rect x="0.376" y="87.747" fill="#FFFFFF" width="51.783" height="1.953"/>
		</g>
	</g>
</g>
</svg>
