<?xml version="1.0" encoding="utf-8"?>
<!-- Generator: Adobe Illustrator 16.0.0, SVG Export Plug-In . SVG Version: 6.00 Build 0)  -->
<!DOCTYPE svg PUBLIC "-//W3C//DTD SVG 1.1//EN" "http://www.w3.org/Graphics/SVG/1.1/DTD/svg11.dtd">
<svg version="1.1" id="Layer_1" xmlns="http://www.w3.org/2000/svg" xmlns:xlink="http://www.w3.org/1999/xlink" x="0px" y="0px"
	 width="1280px" height="800px" viewBox="0 0 1280 800" enable-background="new 0 0 1280 800" xml:space="preserve">
<g>
	<g>
		<polygon fill="#FFFFFF" points="418.384,521.193 424.925,524.231 427.531,498.06 418.579,495.992 		"/>
		<path fill="#FFFFFF" d="M458.421,402.439c0,0-18.207-32.572-28.744,11.5c0,0-23.958-2.878-29.708,6.714
			c-5.744,9.574,3.837,45.031,3.837,45.031l12.457,25.865l2.316,0.532l0.073-9.22l9.908,0.991l-1.029,10.301l1.188,0.274
			L458.421,402.439z"/>
		<g>
			<g>
				<path fill="#FFFFFF" d="M785.574,237.997l-202.756-64.195c-21.205-6.711-44.494,7.097-52.018,30.843
					c-7.517,23.75,3.578,48.453,24.783,55.164l202.756,64.201c21.212,6.72,44.496-7.092,52.016-30.841
					C817.875,269.417,806.786,244.712,785.574,237.997z M570.688,238.007c-12.707,0-23.008-10.303-23.008-23.01
					c0-12.707,10.304-23.007,23.008-23.007c12.706,0,23.012,10.3,23.012,23.007C593.7,227.702,583.395,238.007,570.688,238.007z"/>
			</g>
		</g>
		<path fill="#FFFFFF" d="M527.604,242.038L447.979,348.31c-10.008,13.354-9.742,30.464,0.589,38.209
			c10.334,7.745,26.827,3.188,36.835-10.167l79.463-106.056l-12.933-4.09C540.311,262.525,531.753,253.414,527.604,242.038z"/>
		<path fill="#FFFFFF" d="M814.708,297.292c-17.283,44.268-52.028,35.087-52.028,35.087l-33.726-11.675
			c-3.769,24.011-5.766,49.487-6.833,69.341c-3.516,64.755-28.142,61.402-75.343,89.168l-20.822,49.181l-23.532-0.044
			c-3.299,19.104,7.719,33.159,7.719,33.159l228.594-0.314c0-5.713,1.448-17.267,3.086-32.818l-18.403-0.035l22.442-53.016
			C847.996,421.875,843.997,353.728,814.708,297.292z M674.016,528.349l23.339-55.117l31.164,0.049l-23.332,55.113L674.016,528.349z
			 M722.599,528.349l23.333-55.117l31.162,0.049l-23.331,55.113L722.599,528.349z M802.35,528.394l-31.168-0.045l23.336-55.117
			l31.164,0.049L802.35,528.394z"/>
	</g>
	<g>
		<path fill="#FFFFFF" d="M639.74,105.807c39.767,0,78.333,7.784,114.626,23.134c35.066,14.832,66.563,36.069,93.617,63.123
			c27.054,27.053,48.291,58.551,63.122,93.617c15.352,36.293,23.135,74.859,23.135,114.626c0,39.767-7.783,78.332-23.135,114.626
			c-14.831,35.066-36.068,66.563-63.122,93.617s-58.551,48.291-93.617,63.122c-36.294,15.352-74.859,23.135-114.626,23.135
			c-39.767,0-78.333-7.783-114.626-23.135c-35.066-14.831-66.563-36.068-93.617-63.122c-27.053-27.054-48.291-58.551-63.123-93.617
			c-15.351-36.294-23.134-74.859-23.134-114.626c0-39.767,7.784-78.333,23.134-114.626c14.832-35.066,36.069-66.563,63.123-93.617
			c27.054-27.054,58.551-48.291,93.617-63.123C561.407,113.591,599.973,105.807,639.74,105.807 M639.74,83.807
			c-174.798,0-316.5,141.701-316.5,316.5c0,174.798,141.702,316.5,316.5,316.5c174.798,0,316.5-141.702,316.5-316.5
			C956.24,225.508,814.538,83.807,639.74,83.807L639.74,83.807z"/>
	</g>
</g>
</svg>
