<?xml version="1.0" encoding="utf-8"?>
<!-- Generator: Adobe Illustrator 16.0.0, SVG Export Plug-In . SVG Version: 6.00 Build 0)  -->
<!DOCTYPE svg PUBLIC "-//W3C//DTD SVG 1.1//EN" "http://www.w3.org/Graphics/SVG/1.1/DTD/svg11.dtd">
<svg version="1.1" xmlns="http://www.w3.org/2000/svg" xmlns:xlink="http://www.w3.org/1999/xlink" x="0px" y="0px" width="1280px"
	 height="800px" viewBox="0 0 1280 800" enable-background="new 0 0 1280 800" xml:space="preserve">
<g id="Layer_1" display="none">
	<rect x="37" y="26" display="inline" fill="#333333" width="1212" height="752"/>
</g>
<g id="Layer_2">
	<g>
		<path fill="#FFFFFF" d="M600.74,130.807c39.767,0,78.333,7.784,114.626,23.134c35.066,14.832,66.563,36.069,93.617,63.123
			c27.054,27.053,48.291,58.551,63.122,93.617c15.352,36.293,23.135,74.859,23.135,114.626c0,39.767-7.783,78.332-23.135,114.626
			c-14.831,35.066-36.068,66.563-63.122,93.617s-58.551,48.291-93.617,63.122c-36.294,15.352-74.859,23.135-114.626,23.135
			s-78.333-7.783-114.626-23.135c-35.066-14.831-66.563-36.068-93.617-63.122c-27.053-27.054-48.291-58.551-63.123-93.617
			c-15.351-36.294-23.134-74.859-23.134-114.626c0-39.767,7.784-78.333,23.134-114.626c14.832-35.066,36.069-66.563,63.123-93.617
			c27.054-27.054,58.551-48.291,93.617-63.123C522.407,138.591,560.973,130.807,600.74,130.807 M600.74,108.807
			c-174.798,0-316.5,141.701-316.5,316.5c0,174.798,141.702,316.5,316.5,316.5c174.798,0,316.5-141.702,316.5-316.5
			C917.24,250.508,775.538,108.807,600.74,108.807L600.74,108.807z"/>
	</g>
</g>
<g id="Layer_3" display="none">
	<g display="inline">
		<polygon fill="#FFFFFF" points="378.384,546.193 384.925,549.231 387.531,523.06 378.579,520.992 		"/>
		<path fill="#FFFFFF" d="M418.421,427.439c0,0-18.207-32.572-28.744,11.5c0,0-23.958-2.878-29.708,6.714
			c-5.744,9.574,3.837,45.031,3.837,45.031l12.457,25.865l2.316,0.532l0.073-9.22l9.908,0.991l-1.029,10.301l1.188,0.274
			L418.421,427.439z"/>
		<g>
			<g>
				<path fill="#FFFFFF" d="M745.574,262.997l-202.756-64.195c-21.205-6.711-44.494,7.097-52.018,30.843
					c-7.517,23.75,3.578,48.453,24.783,55.164l202.756,64.201c21.212,6.72,44.496-7.092,52.016-30.841
					C777.875,294.417,766.786,269.712,745.574,262.997z M530.688,263.007c-12.707,0-23.008-10.303-23.008-23.01
					c0-12.707,10.304-23.007,23.008-23.007c12.706,0,23.012,10.3,23.012,23.007C553.7,252.702,543.395,263.007,530.688,263.007z"/>
			</g>
		</g>
		<path fill="#FFFFFF" d="M487.604,267.038l-79.625,106.273c-10.008,13.354-9.742,30.464,0.589,38.209
			c10.334,7.745,26.827,3.188,36.835-10.167l79.463-106.056l-12.933-4.09C500.311,287.525,491.753,278.414,487.604,267.038z"/>
		<path fill="#FFFFFF" d="M774.708,322.292c-17.283,44.267-52.028,35.087-52.028,35.087l-33.726-11.675
			c-3.769,24.011-5.766,49.487-6.833,69.341c-3.516,64.755-28.142,61.402-75.343,89.168l-20.822,49.181l-23.532-0.044
			c-3.299,19.104,7.719,33.159,7.719,33.159l228.594-0.314c0-5.713,1.448-17.267,3.086-32.818l-18.403-0.035l22.442-53.016
			C807.996,446.875,803.997,378.729,774.708,322.292z M634.016,553.349l23.339-55.117l31.164,0.049l-23.332,55.113L634.016,553.349z
			 M682.599,553.349l23.333-55.117l31.162,0.049l-23.331,55.113L682.599,553.349z M762.35,553.394l-31.168-0.045l23.336-55.117
			l31.164,0.049L762.35,553.394z"/>
	</g>
</g>
<g id="Layer_4">
	<path fill="#FFFFFF" d="M665.438,217.433l-122.973,58.332l-133.824-47.82v316.785l135.207,59.413l121.809-64.439l134.237,63.257
		V284.467L665.438,217.433z M537.861,578.047L433.842,532.34V259.517l104.019,37.17V578.047z M548.665,296.719l111.212-52.759
		v274.188l-111.212,58.843V296.719z M774.696,567.225l-104.015-49.001V244.25l104.015,51.859V567.225z"/>
	<polygon fill="#FFFFFF" points="509.161,358.779 498.675,350.351 484.895,361.904 471.103,350.351 460.625,358.779 
		474.623,370.509 460.625,382.245 471.103,390.667 484.895,379.115 498.675,390.667 509.161,382.245 495.154,370.509 	"/>
	<path fill="#FFFFFF" d="M551.257,497.804l-2.022-8.71l5.301-0.833c0.542-0.083,1.083-0.175,1.625-0.27l5.277-0.948l2.306,8.665
		l-5.272,0.944c-0.638,0.111-1.266,0.222-1.905,0.317L551.257,497.804z M534.887,497.804l-5.325-0.759
		c-0.629-0.083-1.249-0.182-1.876-0.281l-5.301-0.842l2.051-8.705l5.301,0.841c0.555,0.092,1.112,0.171,1.663,0.25l5.32,0.756
		L534.887,497.804z M507.354,491.567l-4.81-2.008c-0.57-0.243-1.134-0.477-1.694-0.727l-4.759-2.097l5.093-7.815l4.763,2.092
		c0.496,0.222,0.996,0.433,1.499,0.643l4.814,2.017L507.354,491.567z M578.659,490.25l-5.808-7.479l4.561-2.382
		c0.475-0.25,0.948-0.504,1.427-0.766l4.502-2.445l5.963,7.392l-4.502,2.448c-0.533,0.286-1.054,0.568-1.587,0.846L578.659,490.25z
		 M483.208,479.241l-3.973-3.001c-0.467-0.357-0.926-0.71-1.38-1.071l-3.903-3.064l7.467-6.403l3.904,3.068
		c0.406,0.313,0.817,0.636,1.233,0.949l3.97,3.005L483.208,479.241z M601.205,476.487l-7.563-6.329l3.849-3.106
		c0.417-0.335,0.831-0.671,1.237-1.009l3.812-3.14l7.655,6.255l-3.815,3.145c-0.435,0.357-0.871,0.714-1.315,1.072L601.205,476.487z
		 M464.354,461.914l-6.786-8.722l9.111-4.767l6.775,8.714L464.354,461.914z M617.242,463.442l-8.619-5.343l7.531-8.249l8.676,5.279
		l-3.207,3.561c-0.368,0.41-0.741,0.814-1.118,1.219L617.242,463.442z M662.846,453.932l-1.615-8.77l5.34-0.663
		c0.499-0.063,0.978-0.135,1.46-0.218l5.286-0.918l2.238,8.671l-5.279,0.921c-0.697,0.119-1.384,0.222-2.085,0.31L662.846,453.932z
		 M646.53,454.643l-12.111-2.935l3.075-8.503l12.067,2.922L646.53,454.643z M690.306,445.495l-6.402-7.142l4.352-2.627
		c0.466-0.278,0.925-0.561,1.374-0.846l4.295-2.68l6.537,7.05l-4.294,2.688c-0.503,0.31-1.005,0.615-1.508,0.934L690.306,445.495z
		 M623.625,447.644l-11.423-4.458l4.672-7.991l11.335,4.418L623.625,447.644z M638.153,439.521l-9.455-4.287l2.607-3.875
		c0.281-0.425,0.557-0.842,0.831-1.258l2.554-3.907l9.518,4.188l-2.554,3.91c-0.295,0.448-0.59,0.894-0.89,1.346L638.153,439.521z
		 M461.868,440.665l-10.541-1.934l1.181-4.323c0.16-0.583,0.345-1.175,0.576-1.773l1.593-4.24l10.319,2.624l-1.593,4.239
		c-0.136,0.365-0.253,0.73-0.353,1.088L461.868,440.665z M595.159,433.678l-4.352-2.628c-0.502-0.306-1.006-0.615-1.509-0.925
		l-4.299-2.679l6.534-7.067l4.303,2.684c0.455,0.282,0.914,0.572,1.369,0.851l4.358,2.623L595.159,433.678z M711.604,431.344
		l-7.042-6.732l9.576-6.736l7.022,6.736L711.604,431.344z M474.377,424.719l-7.849-6.086l3.709-3.223
		c0.312-0.277,0.568-0.532,0.817-0.795l3.303-3.505l8.554,5.419l-3.304,3.502c-0.428,0.459-0.882,0.908-1.369,1.341l-0.143,0.118
		L474.377,424.719z M647.912,420.098l-10.36-2.5l1.52-4.252c0.165-0.452,0.32-0.9,0.473-1.354l1.443-4.271l10.413,2.365
		l-1.442,4.271c-0.164,0.5-0.338,0.997-0.517,1.493L647.912,420.098z M573.591,418.081l-3.076-3.648
		c-0.374-0.44-0.735-0.894-1.093-1.342l-2.931-3.722l9.073-4.816l2.931,3.723c0.294,0.376,0.599,0.75,0.903,1.117l3.077,3.64
		L573.591,418.081z M732.391,416.346l-7.98-5.971l3.637-3.278c0.383-0.341,0.761-0.69,1.137-1.039l3.569-3.329l8.11,5.854
		l-3.563,3.328c-0.417,0.392-0.838,0.776-1.268,1.157L732.391,416.346z M486.841,403.098l-10.519-2.017l1.233-4.316
		c0.148-0.529,0.312-1.057,0.479-1.572l1.402-4.282l10.43,2.296l-1.402,4.282c-0.138,0.422-0.268,0.857-0.395,1.292L486.841,403.098
		z M653.881,397.432l-10.785-0.427l0.261-4.426c0.029-0.472,0.054-0.939,0.067-1.415l0.185-4.426l10.795,0.297l-0.175,4.43
		c-0.029,0.512-0.049,1.024-0.082,1.541L653.881,397.432z M749.356,396.678l-10.379-2.455l1.489-4.26
		c0.15-0.423,0.291-0.846,0.416-1.276l1.319-4.301l10.471,2.155l-1.307,4.299c-0.163,0.53-0.338,1.054-0.517,1.574L749.356,396.678z
		 M561.001,396.022l-0.362-4.424c-0.044-0.54-0.078-1.083-0.097-1.625l-0.184-4.43l10.795-0.297l0.184,4.428
		c0.019,0.442,0.042,0.885,0.081,1.327l0.362,4.422L561.001,396.022z M642.602,375.879l-0.956-4.362
		c-0.106-0.458-0.214-0.923-0.315-1.382l-1.045-4.348l10.598-1.713l1.043,4.351c0.122,0.507,0.242,1.011,0.349,1.52l0.963,4.362
		L642.602,375.879z M573.242,374.884l-10.407-2.374l1.44-4.268c0.174-0.496,0.338-0.989,0.518-1.48l1.514-4.255l10.369,2.491
		l-1.518,4.253c-0.166,0.455-0.315,0.905-0.475,1.365L573.242,374.884z M753.529,373.696l-10.799-0.131l0.159-10.333l10.799,0.103
		L753.529,373.696z M636.432,355.25l-2.012-4.112c-0.222-0.44-0.435-0.88-0.658-1.318l-2.079-4.089l9.972-3.406l2.085,4.092
		c0.236,0.473,0.473,0.944,0.701,1.416l2.017,4.112L636.432,355.25z M583.528,352.859H572.73v-5.484l0.44-0.722
		c0.261-0.558,0.594-1.135,0.991-1.725l2.631-3.875l9.435,4.315l-2.626,3.873c-0.029,0.037-0.047,0.077-0.073,0.109V352.859z
		 M595.527,339.222l-5.726-7.52l4.585-2.35c0.552-0.284,1.117-0.563,1.673-0.828l4.652-2.244l5.465,7.646l-4.652,2.244
		c-0.47,0.229-0.938,0.459-1.413,0.703L595.527,339.222z M625.937,337.713l-4.565-2.361c-0.387-0.199-0.784-0.382-1.189-0.557
		l-4.789-2.058l5.01-7.856l4.793,2.057c0.658,0.284,1.305,0.589,1.929,0.911l4.575,2.364L625.937,337.713z"/>
</g>
</svg>
