<?xml version="1.0" encoding="utf-8"?>
<!-- Generator: Adobe Illustrator 16.0.0, SVG Export Plug-In . SVG Version: 6.00 Build 0)  -->
<!DOCTYPE svg PUBLIC "-//W3C//DTD SVG 1.1//EN" "http://www.w3.org/Graphics/SVG/1.1/DTD/svg11.dtd">
<svg version="1.1" xmlns="http://www.w3.org/2000/svg" xmlns:xlink="http://www.w3.org/1999/xlink" x="0px" y="0px" width="1280px"
	 height="800px" viewBox="0 0 1280 800" enable-background="new 0 0 1280 800" xml:space="preserve">
<g id="Layer_1" display="none">
	<rect x="37" y="26" display="inline" fill="#333333" width="1212" height="752"/>
	<g display="inline">
		<g>
			<path fill="#FFFFFF" d="M599.74,130.807c39.767,0,78.333,7.784,114.626,23.134c35.066,14.832,66.563,36.069,93.617,63.123
				c27.054,27.053,48.291,58.551,63.122,93.617c15.352,36.293,23.135,74.859,23.135,114.626c0,39.767-7.783,78.332-23.135,114.626
				c-14.831,35.066-36.068,66.563-63.122,93.617s-58.551,48.291-93.617,63.122c-36.294,15.352-74.859,23.135-114.626,23.135
				s-78.333-7.783-114.626-23.135c-35.066-14.831-66.563-36.068-93.617-63.122c-27.053-27.054-48.291-58.551-63.123-93.617
				c-15.351-36.294-23.134-74.859-23.134-114.626c0-39.767,7.784-78.333,23.134-114.626c14.832-35.066,36.069-66.563,63.123-93.617
				c27.054-27.054,58.551-48.291,93.617-63.123C521.407,138.591,559.973,130.807,599.74,130.807 M599.74,108.807
				c-174.798,0-316.5,141.701-316.5,316.5c0,174.798,141.702,316.5,316.5,316.5c174.798,0,316.5-141.702,316.5-316.5
				C916.24,250.508,774.538,108.807,599.74,108.807L599.74,108.807z"/>
		</g>
	</g>
</g>
<g id="Layer_4">
	<g>
		<g>
			<path fill="#FFFFFF" d="M598.74,130.807c39.767,0,78.333,7.784,114.626,23.134c35.066,14.832,66.563,36.069,93.617,63.123
				c27.054,27.053,48.291,58.551,63.122,93.617c15.352,36.293,23.135,74.859,23.135,114.626c0,39.767-7.783,78.332-23.135,114.626
				c-14.831,35.066-36.068,66.563-63.122,93.617s-58.551,48.291-93.617,63.122c-36.294,15.352-74.859,23.135-114.626,23.135
				s-78.333-7.783-114.626-23.135c-35.066-14.831-66.563-36.068-93.617-63.122c-27.053-27.054-48.291-58.551-63.123-93.617
				c-15.351-36.294-23.134-74.859-23.134-114.626c0-39.767,7.784-78.333,23.134-114.626c14.832-35.066,36.069-66.563,63.123-93.617
				c27.054-27.054,58.551-48.291,93.617-63.123C520.407,138.591,558.973,130.807,598.74,130.807 M598.74,108.807
				c-174.798,0-316.5,141.701-316.5,316.5c0,174.798,141.702,316.5,316.5,316.5c174.798,0,316.5-141.702,316.5-316.5
				C915.24,250.508,773.538,108.807,598.74,108.807L598.74,108.807z"/>
		</g>
	</g>
</g>
<g id="Layer_2" display="none">
	<g display="inline">
		<polygon fill="#FFFFFF" points="384.384,558.193 390.925,561.231 393.531,535.06 384.579,532.992 		"/>
		<path fill="#FFFFFF" d="M424.421,439.439c0,0-18.207-32.572-28.744,11.5c0,0-23.958-2.878-29.708,6.714
			c-5.744,9.574,3.837,45.031,3.837,45.031l12.457,25.865l2.316,0.532l0.073-9.22l9.908,0.991l-1.029,10.301l1.188,0.274
			L424.421,439.439z"/>
		<g>
			<g>
				<path fill="#FFFFFF" d="M751.574,274.997l-202.756-64.195c-21.205-6.711-44.494,7.097-52.018,30.843
					c-7.517,23.75,3.578,48.453,24.783,55.164l202.756,64.201c21.212,6.72,44.496-7.092,52.016-30.841
					C783.875,306.417,772.786,281.712,751.574,274.997z M536.688,275.007c-12.707,0-23.008-10.303-23.008-23.01
					c0-12.707,10.304-23.007,23.008-23.007c12.706,0,23.012,10.3,23.012,23.007C559.7,264.702,549.395,275.007,536.688,275.007z"/>
			</g>
		</g>
		<path fill="#FFFFFF" d="M493.604,279.038l-79.625,106.273c-10.008,13.354-9.742,30.464,0.589,38.209
			c10.334,7.745,26.827,3.188,36.835-10.167l79.463-106.056l-12.933-4.09C506.311,299.525,497.753,290.414,493.604,279.038z"/>
		<path fill="#FFFFFF" d="M780.708,334.292c-17.283,44.267-52.028,35.087-52.028,35.087l-33.726-11.675
			c-3.769,24.011-5.766,49.487-6.833,69.341c-3.516,64.755-28.142,61.402-75.343,89.168l-20.822,49.181l-23.532-0.044
			c-3.299,19.104,7.719,33.159,7.719,33.159l228.594-0.314c0-5.713,1.448-17.267,3.086-32.818l-18.403-0.035l22.442-53.016
			C813.996,458.875,809.997,390.729,780.708,334.292z M640.016,565.349l23.339-55.117l31.164,0.049l-23.332,55.113L640.016,565.349z
			 M688.599,565.349l23.333-55.117l31.162,0.049l-23.331,55.113L688.599,565.349z M768.35,565.394l-31.168-0.045l23.336-55.117
			l31.164,0.049L768.35,565.394z"/>
	</g>
</g>
<g id="Layer_3">
	<g id="Isolation_Mode">
		<path fill="#FFFFFF" d="M475.094,470.932c14.704,16.188,16.742,46.623,16.742,67.125c0,29.885-10.552,53.371-18.582,68.006
			h187.728c0.147-0.682,0.302-1.38,0.451-2.026c3.642-16.194,3.433-30.52,5.412-39.015c3.146-13.492,14.647-9.843,39.109-5.915
			c25.665,4.121,41.853-3.529,43.292-20.615c1.102-13.093-7.279-26.546-6.862-29.173c0.837-5.201,10.257-6.551,11.868-13.196
			c1.554-6.4-14.086-9.359-14.086-9.359s7.021-0.225,11.594-2.007c3.689-1.434,5.49-1.982,5.275-6.902
			c-0.249-5.771-4.933-13.864-3.721-16.695c1.215-2.836,6.882-4.857,14.166-7.282c7.287-2.43,10.92-4.68,10.92-10.746
			c0-6.07-15.521-28.563-21.59-38.683c-6.073-10.125-14.018-19.383-14.828-22.621c-0.812-3.238,6.279-5.718,6.279-12.016
			c0-6.589-4.261-26.438-4.261-26.438s-9.306-53.425-50.59-91.069c-47.335-43.152-137.087-43.19-187.933-20.371
			c-64.307,28.86-86.08,93.17-78.991,146.841C432.182,421.899,456.663,450.638,475.094,470.932z M475.907,415.402
			c-6.837-10.594-2.96-20.321-2.96-20.321s-19.615-5.926-17.36-36.582c1.851-25.124,14.781-34.729,14.781-34.729
			s-6.179-7.37-1.812-16.101c4.69-9.38,12.527-11.983,12.527-11.983s-1.52-7.754,3.184-11.935
			c6.333-5.625,12.697-4.693,12.697-4.693s3.703-9.977,12.942-13.674c9.23-3.695,15.866,1.013,15.866,1.013
			s2.657-8.905,11.842-12.099c9.723-3.374,17.737,0.742,17.737,0.742s4.951-6.93,18.249-6.93c13.306,0,20.553,6.558,20.553,6.558
			s10.707-6.268,21.421-2.574c10.715,3.695,14.42,11.811,14.42,11.811s9.227-5.179,23.093,1.084
			c12.24,5.533,14.228,14.065,14.228,14.065s8.132-0.116,12.737,3.756c8.816,7.414,4.638,12.721,4.638,12.721
			s11.291,4.42,17.726,17.149c7.18,14.212,4.307,26.416,0.369,31.409c-5.541,7.02-12.194,5.908-12.194,5.908
			s7.76,16.258-17.733,21.805c-25.498,5.539-38.06,4.799-38.06,4.799s9.238,12.194-0.738,22.176
			c-9.98,9.971-25.496,11.079-25.496,11.079s-11.458,1.844-18.85,8.499c-7.391,6.655-18.105,46.186-18.105,46.186h-11.815
			l-5.547-26.229c0,0-11.202,16.253-28.083,13.302c-19.709-3.451-22.165-30.3-22.165-30.3S485.212,429.82,475.907,415.402z"/>
	</g>
</g>
</svg>
