<?xml version="1.0" encoding="utf-8"?>
<!-- Generator: Adobe Illustrator 16.0.0, SVG Export Plug-In . SVG Version: 6.00 Build 0)  -->
<!DOCTYPE svg PUBLIC "-//W3C//DTD SVG 1.1//EN" "http://www.w3.org/Graphics/SVG/1.1/DTD/svg11.dtd">
<svg version="1.1" xmlns="http://www.w3.org/2000/svg" xmlns:xlink="http://www.w3.org/1999/xlink" x="0px" y="0px" width="1280px"
	 height="800px" viewBox="0 0 1280 800" enable-background="new 0 0 1280 800" xml:space="preserve">
<g id="Layer_1" display="none">
	<rect x="37" y="26" display="inline" fill="#333333" width="1212" height="752"/>
</g>
<g id="Layer_2">
	<g>
		<path fill="#FFFFFF" d="M600.74,130.807c39.767,0,78.333,7.784,114.626,23.134c35.066,14.832,66.563,36.069,93.617,63.123
			c27.054,27.053,48.291,58.551,63.122,93.617c15.352,36.293,23.135,74.859,23.135,114.626c0,39.767-7.783,78.332-23.135,114.626
			c-14.831,35.066-36.068,66.563-63.122,93.617s-58.551,48.291-93.617,63.122c-36.294,15.352-74.859,23.135-114.626,23.135
			s-78.333-7.783-114.626-23.135c-35.066-14.831-66.563-36.068-93.617-63.122c-27.053-27.054-48.291-58.551-63.123-93.617
			c-15.351-36.294-23.134-74.859-23.134-114.626c0-39.767,7.784-78.333,23.134-114.626c14.832-35.066,36.069-66.563,63.123-93.617
			c27.054-27.054,58.551-48.291,93.617-63.123C522.407,138.591,560.973,130.807,600.74,130.807 M600.74,108.807
			c-174.798,0-316.5,141.701-316.5,316.5c0,174.798,141.702,316.5,316.5,316.5c174.798,0,316.5-141.702,316.5-316.5
			C917.24,250.508,775.538,108.807,600.74,108.807L600.74,108.807z"/>
	</g>
</g>
<g id="Layer_3" display="none">
	<g display="inline">
		<polygon fill="#FFFFFF" points="378.384,546.193 384.925,549.231 387.531,523.06 378.579,520.992 		"/>
		<path fill="#FFFFFF" d="M418.421,427.439c0,0-18.207-32.572-28.744,11.5c0,0-23.958-2.878-29.708,6.714
			c-5.744,9.574,3.837,45.031,3.837,45.031l12.457,25.865l2.316,0.532l0.073-9.22l9.908,0.991l-1.029,10.301l1.188,0.274
			L418.421,427.439z"/>
		<g>
			<g>
				<path fill="#FFFFFF" d="M745.574,262.997l-202.756-64.195c-21.205-6.711-44.494,7.097-52.018,30.843
					c-7.517,23.75,3.578,48.453,24.783,55.164l202.756,64.201c21.212,6.72,44.496-7.092,52.016-30.841
					C777.875,294.417,766.786,269.712,745.574,262.997z M530.688,263.007c-12.707,0-23.008-10.303-23.008-23.01
					c0-12.707,10.304-23.007,23.008-23.007c12.706,0,23.012,10.3,23.012,23.007C553.7,252.702,543.395,263.007,530.688,263.007z"/>
			</g>
		</g>
		<path fill="#FFFFFF" d="M487.604,267.038l-79.625,106.273c-10.008,13.354-9.742,30.464,0.589,38.209
			c10.334,7.745,26.827,3.188,36.835-10.167l79.463-106.056l-12.933-4.09C500.311,287.525,491.753,278.414,487.604,267.038z"/>
		<path fill="#FFFFFF" d="M774.708,322.292c-17.283,44.267-52.028,35.087-52.028,35.087l-33.726-11.675
			c-3.769,24.011-5.766,49.487-6.833,69.341c-3.516,64.755-28.142,61.402-75.343,89.168l-20.822,49.181l-23.532-0.044
			c-3.299,19.104,7.719,33.159,7.719,33.159l228.594-0.314c0-5.713,1.448-17.267,3.086-32.818l-18.403-0.035l22.442-53.016
			C807.996,446.875,803.997,378.729,774.708,322.292z M634.016,553.349l23.339-55.117l31.164,0.049l-23.332,55.113L634.016,553.349z
			 M682.599,553.349l23.333-55.117l31.162,0.049l-23.331,55.113L682.599,553.349z M762.35,553.394l-31.168-0.045l23.336-55.117
			l31.164,0.049L762.35,553.394z"/>
	</g>
</g>
<g id="Layer_4">
	<g id="Your_Icon">
		<g>
			<polygon fill="none" points="504.122,340.854 504.122,509.878 673.146,509.878 			"/>
			<polygon fill="none" points="691.927,523.964 490.037,523.964 490.037,322.073 485.342,322.073 485.342,523.964 485.342,528.658 
				490.037,528.658 691.927,528.658 			"/>
			<path fill="#FFFFFF" d="M437,585h354v-8.635L445.635,231H437V585z M506.073,360.513l155.416,155.414H506.073V360.513z
				 M445.635,304.391h12.951v4.317h-12.951V304.391z M445.635,313.024h12.951v4.318h-12.951V313.024z M445.635,321.658h12.951v4.318
				h-12.951V321.658z M445.635,330.292h12.951v4.317h-12.951V330.292z M445.635,347.561h12.951v4.317h-12.951V347.561z
				 M445.635,356.195h12.951v4.318h-12.951V356.195z M445.635,364.829h12.951v4.316h-12.951V364.829z M445.635,373.463h12.951v4.317
				h-12.951V373.463z M445.635,390.731h12.951v4.318h-12.951V390.731z M445.635,399.365h12.951v4.318h-12.951V399.365z M445.635,408
				h12.951v4.316h-12.951V408z M445.635,416.635h12.951v4.316h-12.951V416.635z M445.635,433.901h12.951v4.318h-12.951V433.901z
				 M445.635,442.536h12.951v4.318h-12.951V442.536z M445.635,451.171h12.951v4.317h-12.951V451.171z M445.635,459.805h12.951v4.316
				h-12.951V459.805z M445.635,477.073h12.951v4.317h-12.951V477.073z M445.635,485.707h12.951v4.317h-12.951V485.707z
				 M445.635,494.342h12.951v4.316h-12.951V494.342z M445.635,502.975h12.951v4.318h-12.951V502.975z M445.635,520.244h12.951v4.316
				h-12.951V520.244z M445.635,528.879h12.951v4.316h-12.951V528.879z M445.635,537.512h12.951v4.317h-12.951V537.512z
				 M445.635,546.146h12.951v4.318h-12.951V546.146z M467.22,559.099v17.267h-4.317v-17.267h-17.268v-4.318h17.268h4.317V559.099z
				 M467.22,515.927h-21.585v-4.317h21.585V515.927z M467.22,472.756h-21.585v-4.316h21.585V472.756z M467.22,429.585h-21.585
				v-4.316h21.585V429.585z M467.22,386.415h-21.585v-4.317h21.585V386.415z M467.22,343.244h-21.585v-4.317h21.585V343.244z
				 M467.22,300.073h-21.585v-4.317h21.585V300.073z M475.854,576.365h-4.318v-12.95h4.318V576.365z M484.487,576.365h-4.316v-12.95
				h4.316V576.365z M493.122,576.365h-4.317v-12.95h4.317V576.365z M678.756,528.879v4.316H493.122h-4.317v-4.316V343.244h4.317
				v185.635 M501.756,576.365h-4.316v-12.95h4.316V576.365z M510.391,576.365h-4.318V554.78h4.318V576.365z M519.025,576.365h-4.317
				v-12.95h4.317V576.365z M527.658,576.365h-4.316v-12.95h4.316V576.365z M536.293,576.365h-4.317v-12.95h4.317V576.365z
				 M544.927,576.365h-4.317v-12.95h4.317V576.365z M553.561,576.365h-4.317V554.78h4.317V576.365z M562.196,576.365h-4.318v-12.95
				h4.318V576.365z M570.829,576.365h-4.316v-12.95h4.316V576.365z M579.463,576.365h-4.318v-12.95h4.318V576.365z M588.098,576.365
				h-4.317v-12.95h4.317V576.365z M596.731,576.365h-4.317V554.78h4.317V576.365z M605.365,576.365h-4.316v-12.95h4.316V576.365z
				 M614,576.365h-4.317v-12.95H614V576.365z M622.635,576.365h-4.318v-12.95h4.318V576.365z M631.269,576.365h-4.317v-12.95h4.317
				V576.365z M639.901,576.365h-4.316V554.78h4.316V576.365z M648.536,576.365h-4.316v-12.95h4.316V576.365z M657.171,576.365
				h-4.316v-12.95h4.316V576.365z M665.805,576.365h-4.316v-12.95h4.316V576.365z M674.439,576.365h-4.318v-12.95h4.318V576.365z
				 M683.073,576.365h-4.317V554.78h4.317V576.365z M691.707,576.365h-4.316v-12.95h4.316V576.365z M700.342,576.365h-4.316v-12.95
				h4.316V576.365z M708.976,576.365h-4.317v-12.95h4.317V576.365z M702.5,541.829c-5.953,0-10.793-4.831-10.793-10.793
				c0-5.96,4.84-10.792,10.793-10.792c5.961,0,10.793,4.832,10.793,10.792C713.293,536.998,708.461,541.829,702.5,541.829z
				 M717.61,576.365h-4.317v-12.95h4.317V576.365z M726.244,576.365h-4.317V554.78h4.317V576.365z"/>
		</g>
	</g>
</g>
</svg>
